<svg xmlns="http://www.w3.org/2000/svg" width="237.998" height="41.997" viewBox="0 0 237.998 41.997">
  <g id="web-logo_tcm27-533" transform="translate(-0.001 -1)">
    <path id="Path_4873" data-name="Path 4873" d="M81.87,35.03H76.18v3.7a4.835,4.835,0,0,1-1.4.13,3.28,3.28,0,0,1-3.61-3.59c0-2.53,2.18-3.86,5.46-3.86a11.655,11.655,0,0,1,4.54.8V28.46a31.188,31.188,0,0,0-6.44-.51c-5.53,0-10.32,2.32-10.32,6.98,0,4.95,4.59,7.38,10.32,7.38a29.024,29.024,0,0,0,7.14-.76V35.03Zm10.59-6.84H85.84v8.43c0,4.11,3.78,5.7,8.6,5.7,5.21,0,8.65-1.47,8.65-5.98V28.19H96.61v8.25c0,1.35-.37,2.29-2.1,2.29-1.58,0-2.05-.99-2.05-2.3V28.19Zm14.2,13.89H121.4V37.97h-8.12V28.19h-6.62Zm18.08,0h6.61V37.12h7.91V33.78h-7.91V31.53h8.16V28.19h-14.77Zm29.151-.01h9.99c3.59,0,7.09-.35,7.09-3.85,0-1.39-1.47-2.92-3.89-3.17v-.04c2.31-.48,3.57-1.48,3.57-3.4,0-2.65-2.94-3.42-5.93-3.42H153.89V42.07Zm6.21-5.71h1.78c1.23,0,2.47.22,2.47,1.42,0,1.07-1.3,1.43-2.51,1.43H160.1Zm0-5.55h1.8c1.2,0,2.28.32,2.28,1.36s-1.26,1.33-2.42,1.33H160.1V30.81Zm12.86,11.27h6.6l1.06-3.02h5.58l1.14,3.02h6.94l-6.15-13.89h-9.11l-6.06,13.89Zm10.48-10.91h.05l1.88,4.56h-3.84l1.91-4.56Zm13.749,10.91h5.68V32.01h.06l3.36,10.07h9.73V28.19h-5.69v9.78h-.04l-3.2-9.78h-9.9Z" fill="#00417d" fill-rule="evenodd"/>
    <g id="Group_3918" data-name="Group 3918" transform="translate(219 27.997)">
      <path id="Path_4874" data-name="Path 4874" d="M6.749.193H.129v13.88h6.62V8.193H6.8l4.3,5.88H19l-6.34-7.38,5.8-6.5h-7.54L6.8,5.633h-.05Z" fill="#00417d" fill-rule="evenodd"/>
    </g>
    <path id="Path_4875" data-name="Path 4875" d="M23.19,30.18s-2.01,1.71-3.1,2.52c0,0-.12.25.38.04a69.562,69.562,0,0,1,11.01-3.5,118.547,118.547,0,0,1,13-2.36s.35.07.45-.57a55.444,55.444,0,0,1,3.54-10.74,38.5,38.5,0,0,1,3.37-5.62s.33-.4-.31-.23c0,0-3.87,2.02-8.6,4.83,0,0-1.32.56-1.82-.59a1.118,1.118,0,0,1,.5-1.39A67.893,67.893,0,0,1,53.72,6.68s1.72-.96,2.55,0c0,0,.72.56-.11,1.5,0,0-4.41,7.19-5.76,10.77a88.991,88.991,0,0,0-2.64,8.78,1.67,1.67,0,0,1-1.67,1.45A111.376,111.376,0,0,0,30.8,31.93S20.47,34.79,16.59,36.4c0,0-1.23.29-1.49-.83,0,0-.34-.64.45-1.44a82.947,82.947,0,0,1,6.17-5.72,1.336,1.336,0,0,1,1.51.11s.94.99-.04,1.66" fill="#da1f27" fill-rule="evenodd"/>
    <path id="Path_4876" data-name="Path 4876" d="M.16,32.96s.24.93,1.41.42L6.5,31.59s4.66-1.53,9.02-2.56a111.763,111.763,0,0,1,12.6-2.12s5.93-.68,7.33-.6c0,0,1.29.17,1.54-.77a12.829,12.829,0,0,0,.35-1.81s3.21-12.8,7.57-19.96c0,0,.82-.49.37-1.77,0,0-.34-.82-1.77-.49,0,0-5.68,1.21-15.08,7.01,0,0-11.23,6.02-26.2,19.06a1.113,1.113,0,0,0,0,1.81,1.608,1.608,0,0,0,2.32-.15A198.019,198.019,0,0,1,27.61,12.16,111.755,111.755,0,0,1,40.64,5.09s-3.74,6.03-6.3,18.24c0,0,.15.64-.83.64,0,0-7.57.71-16.16,2.3,0,0-10.92,2.67-16.29,4.93,0,0-1.55.69-.9,1.76" fill="#da1f27" fill-rule="evenodd"/>
    <path id="Path_4877" data-name="Path 4877" d="M6.44,35.52a32.032,32.032,0,0,1,6.44,7.12s.07.45,1.28.34c0,0,7.15-.79,14.11-.83,0,0,12.09-.26,18.1.76,0,0,1.21.37,1.61-.57,0,0,3.96-5.09,5.88-6.93a.931.931,0,0,0,.03-1.43l-.52-1.01s-.15-.53-1.05-.46c0,0-5.34-.11-13.1-.82a.764.764,0,0,0-.75.33,6.389,6.389,0,0,1-4.78,3.12s-.71,0-.3.53a5.724,5.724,0,0,0,5.21.39,3.476,3.476,0,0,0,1.46-1.7.606.606,0,0,1,.54-.3s8.54.77,9.4.73c.22-.01-2.55,2.66-4.05,5.16,0,0-7.88-.49-15.11-.61,0,0-10.2.14-16.59.85,0,0-.26.13-.49-.31a21.411,21.411,0,0,0-5.9-5.74,1.155,1.155,0,0,0-1.44.09s-.77.77.02,1.29" fill="#00417d" fill-rule="evenodd"/>
    <path id="Path_4878" data-name="Path 4878" d="M159.519,15.31h6.62V1.44h-6.62Zm20.39,0V5.82h6.62v5.95h14.43V1.44h6.63V11.77h8.58V5.79h6.61v5.98h8.61V5.79H238v9.52Zm-106.94.01h6.59V12.08h-6.59Zm56.57-10.6h6.59V1.48h-6.59Z" fill="#00417d" fill-rule="evenodd"/>
    <path id="Path_4879" data-name="Path 4879" d="M216.179,4.72h6.59V1.48h-6.59Zm15.08,15.56h6.59V17.03h-6.59ZM80.93,10.9a14.25,14.25,0,0,0-6.09-.71c-2.59.51-3.58,1.85-3.6,3.58-.01,2.52,2.18,3.86,5.46,3.86a12.062,12.062,0,0,0,4.56-.79v3.74a31.252,31.252,0,0,1-6.46.52c-5.53,0-10.32-2.33-10.32-6.99,0-4.95,4.59-7.39,10.32-7.39a31.01,31.01,0,0,1,5.85.49c-.56-1.81-3.52-2.74-6.28-2.74a22.892,22.892,0,0,0-6.08.78V1.52A49.424,49.424,0,0,1,76.27,1C81.8,1,87.58,3.32,87.58,7.99a3.9,3.9,0,0,1-.04.5v3.28h8.52V5.79h6.62v5.98h8.65V1.44h6.62V11.77h17.91c-.47-1.92-2.49-2.71-5.34-2.71a12.2,12.2,0,0,0-4.55.79V6.12a29.785,29.785,0,0,1,6.45-.52c5.28,0,9.91,1.92,10.3,6.17h7.47V1.44h6.62V15.31H80.93Z" fill="#00417d" fill-rule="evenodd"/>
    <path id="Path_4880" data-name="Path 4880" d="M91.839,20.28h6.59V17.03h-6.59Zm8.48,0h6.59V17.03h-6.59Zm89.6-16.43h.92V1.44h5.67V2.49h-3.07V3.85h3.07v1h-6.59Z" fill="#00417d" fill-rule="evenodd"/>
  </g>
</svg>
