<svg xmlns="http://www.w3.org/2000/svg" width="238" height="43" viewBox="0 0 238 43" xmlns:xlink="http://www.w3.org/1999/xlink"><defs><path id="a" d="M18.999 14.073V.193H.129v13.88h18.87z"/><path id="c" d="M0 42.997h237.999V1H0z"/></defs><g fill="none" fill-rule="evenodd"><path fill="#00417D" d="M81.87 35.03h-5.69v3.7c-.39.13-.93.13-1.4.13-2.64 0-3.61-1.68-3.61-3.59 0-2.53 2.18-3.86 5.46-3.86 1.85 0 3.61.35 4.54.8v-3.75c-1.66-.31-3.21-.51-6.44-.51-5.53 0-10.32 2.32-10.32 6.98 0 4.95 4.59 7.38 10.32 7.38 2.72 0 4.86-.21 7.14-.76v-6.52zm10.59-6.84h-6.62v8.43c0 4.11 3.78 5.7 8.6 5.7 5.21 0 8.65-1.47 8.65-5.98v-8.15h-6.48v8.25c0 1.35-.37 2.29-2.1 2.29-1.58 0-2.05-.99-2.05-2.3v-8.24zM106.659 42.08h14.74v-4.11h-8.12v-9.78h-6.62zM124.739 42.08h6.61v-4.96h7.91v-3.34h-7.91v-2.25h8.16v-3.34h-14.77zM153.89 42.07h9.99c3.59 0 7.09-.35 7.09-3.85 0-1.39-1.47-2.92-3.89-3.17v-.04c2.31-.48 3.57-1.48 3.57-3.4 0-2.65-2.94-3.42-5.93-3.42h-10.83v13.88zm6.21-5.71h1.78c1.23 0 2.47.22 2.47 1.42 0 1.07-1.3 1.43-2.51 1.43h-1.74v-2.85zm0-5.55h1.8c1.2 0 2.28.32 2.28 1.36s-1.26 1.33-2.42 1.33h-1.66v-2.69zm12.86 11.27h6.6l1.06-3.02h5.58l1.14 3.02h6.94l-6.15-13.89h-9.11l-6.06 13.89zm10.48-10.91h.05l1.88 4.56h-3.84l1.91-4.56zM197.189 42.08h5.68V32.01h.06l3.36 10.07h9.73V28.19h-5.69v9.78h-.04l-3.2-9.78h-9.9z"/><g transform="translate(219 27.997)"><mask id="b" fill="#fff"><use xlink:href="#a"/></mask><path fill="#00417D" mask="url(#b)" d="M6.749.193H.129v13.88h6.62v-5.88h.05l4.3 5.88h7.9l-6.34-7.38 5.8-6.5h-7.54l-4.12 5.44h-.05z"/></g><path fill="#DA1F27" d="M23.19 30.18s-2.01 1.71-3.1 2.52c0 0-.12.25.38.04 0 0 4.62-2.02 11.01-3.5 0 0 7.24-1.76 13-2.36 0 0 .35.07.45-.57 0 0 1.33-6.23 3.54-10.74 0 0 1.79-3.65 3.37-5.62 0 0 .33-.4-.31-.23 0 0-3.87 2.02-8.6 4.83 0 0-1.32.56-1.82-.59 0 0-.37-.81.5-1.39 0 0 5.71-3.63 12.11-5.89 0 0 1.72-.96 2.55 0 0 0 .72.56-.11 1.5 0 0-4.41 7.19-5.76 10.77 0 0-2.1 5.95-2.64 8.78 0 0-.1 1.32-1.67 1.45 0 0-9.15.98-15.29 2.75 0 0-10.33 2.86-14.21 4.47 0 0-1.23.29-1.49-.83 0 0-.34-.64.45-1.44 0 0 4.63-4.67 6.17-5.72 0 0 .8-.49 1.51.11 0 0 .94.99-.04 1.66"/><path fill="#DA1F27" d="M.16 32.96s.24.93 1.41.42l4.93-1.79s4.66-1.53 9.02-2.56c0 0 7.49-1.71 12.6-2.12 0 0 5.93-.68 7.33-.6 0 0 1.29.17 1.54-.77 0 0 .2-.67.35-1.81 0 0 3.21-12.8 7.57-19.96 0 0 .82-.49.37-1.77 0 0-.34-.82-1.77-.49 0 0-5.68 1.21-15.08 7.01 0 0-11.23 6.02-26.2 19.06 0 0-1.06.79 0 1.81 0 0 1.3 1.1 2.32-.15 0 0 10.49-9.24 23.06-17.08 0 0 7.24-4.6 13.03-7.07 0 0-3.74 6.03-6.3 18.24 0 0 .15.64-.83.64 0 0-7.57.71-16.16 2.3 0 0-10.92 2.67-16.29 4.93 0 0-1.55.69-.9 1.76"/><path fill="#00417D" d="M6.44 35.52s3.28 2.46 6.44 7.12c0 0 .07.45 1.28.34 0 0 7.15-.79 14.11-.83 0 0 12.09-.26 18.1.76 0 0 1.21.37 1.61-.57 0 0 3.96-5.09 5.88-6.93 0 0 .75-.55.03-1.43l-.52-1.01s-.15-.53-1.05-.46c0 0-5.34-.11-13.1-.82 0 0-.52-.08-.75.33 0 0-1.39 2.72-4.78 3.12 0 0-.71 0-.3.53 0 0 2.02 1.52 5.21.39 0 0 1.17-.68 1.46-1.7 0 0 .15-.3.54-.3 0 0 8.54.77 9.4.73.22-.01-2.55 2.66-4.05 5.16 0 0-7.88-.49-15.11-.61 0 0-10.2.14-16.59.85 0 0-.26.13-.49-.31 0 0-2.43-3.66-5.9-5.74 0 0-.8-.55-1.44.09 0 0-.77.77.02 1.29"/><mask id="d" fill="#fff"><use xlink:href="#c"/></mask><path fill="#00417D" mask="url(#d)" d="M159.519 15.31h6.62V1.44h-6.62zM179.909 15.31V5.82h6.62v5.95h14.43V1.44h6.63v10.33h8.58V5.79h6.61v5.98h8.61V5.79h6.61v9.52zM72.969 15.32h6.59v-3.24h-6.59zM129.539 4.72h6.59V1.48h-6.59z"/><path fill="#00417D" mask="url(#d)" d="M216.179 4.72h6.59V1.48h-6.59zM231.259 20.28h6.59v-3.25h-6.59zM80.93 10.9c-2.79-1.01-5.66-.79-6.09-.71-2.59.51-3.58 1.85-3.6 3.58-.01 2.52 2.18 3.86 5.46 3.86 1.85 0 3.61-.35 4.56-.79v3.74c-1.67.31-3.22.52-6.46.52-5.53 0-10.32-2.33-10.32-6.99 0-4.95 4.59-7.39 10.32-7.39 2.2 0 4.03.15 5.85.49-.56-1.81-3.52-2.74-6.28-2.74-1.86 0-5.14.35-6.08.78V1.52C69.94 1.2 73.03 1 76.27 1c5.53 0 11.31 2.32 11.31 6.99 0 .18-.02.34-.04.5v3.28h8.52V5.79h6.62v5.98h8.65V1.44h6.62v10.33h17.91c-.47-1.92-2.49-2.71-5.34-2.71-1.85 0-3.6.36-4.55.79V6.12c1.66-.33 3.22-.52 6.45-.52 5.28 0 9.91 1.92 10.3 6.17h7.47V1.44h6.62v13.87H80.93V10.9z"/><path fill="#00417D" mask="url(#d)" d="M91.839 20.28h6.59v-3.25h-6.59zM100.319 20.28h6.59v-3.25h-6.59zM189.919 3.85h.92V1.44h5.67v1.05h-3.07v1.36h3.07v1h-6.59z"/></g></svg>